<svg width="107" height="146" viewBox="0 0 107 146" fill="none" xmlns="http://www.w3.org/2000/svg">
<g id="Group 1000001469">
<circle id="Ellipse 60" cx="13.9512" cy="53.5031" r="10.5" transform="rotate(-90.6199 13.9512 53.5031)" fill="#64B0D0"/>
<circle id="Ellipse 61" cx="54.9483" cy="53.0595" r="10.5" transform="rotate(-90.6199 54.9483 53.0595)" fill="#64B0D0"/>
<circle id="Ellipse 62" cx="95.9463" cy="52.616" r="10.5" transform="rotate(-90.6199 95.9463 52.616)" fill="#64B0D0"/>
<circle id="Ellipse 63" cx="10.6133" cy="135.064" r="10.5" transform="rotate(-90.6199 10.6133 135.064)" fill="#64B0D0"/>
<circle id="Ellipse 64" cx="51.6104" cy="134.62" r="10.5" transform="rotate(-90.6199 51.6104 134.62)" fill="#64B0D0"/>
<circle id="Ellipse 65" cx="92.6084" cy="134.177" r="10.5" transform="rotate(-90.6199 92.6084 134.177)" fill="#64B0D0"/>
<circle id="Ellipse 66" cx="13.9961" cy="11.5002" r="10.5" transform="rotate(-90.6199 13.9961 11.5002)" fill="#64B0D0"/>
<circle id="Ellipse 67" cx="54.9942" cy="11.0566" r="10.5" transform="rotate(-90.6199 54.9942 11.0566)" fill="#64B0D0"/>
<circle id="Ellipse 68" cx="95.9913" cy="10.613" r="10.5" transform="rotate(-90.6199 95.9913 10.613)" fill="#64B0D0"/>
<circle id="Ellipse 69" cx="10.6583" cy="93.061" r="10.5" transform="rotate(-90.6199 10.6583 93.061)" fill="#64B0D0"/>
<circle id="Ellipse 70" cx="51.6563" cy="92.6174" r="10.5" transform="rotate(-90.6199 51.6563 92.6174)" fill="#64B0D0"/>
<circle id="Ellipse 71" cx="92.6534" cy="92.1739" r="10.5" transform="rotate(-90.6199 92.6534 92.1739)" fill="#64B0D0"/>
</g>
</svg>
